<?xml version="1.0" encoding="UTF-8" standalone="no"?>
<!DOCTYPE svg PUBLIC "-//W3C//DTD SVG 1.0//EN"
 "http://www.w3.org/TR/2001/REC-SVG-20010904/DTD/svg10.dtd" [
 <!ATTLIST svg xmlns:xlink CDATA #FIXED "http://www.w3.org/1999/xlink">
]>
<!-- Generated by Graphviz version 2.16 (Wed Jan  9 23:52:32 UTC 2008)
     For user: (homer) homer,,, -->
<!-- Title: des Pages: 1 -->
<svg width="1344pt" height="616pt"
 viewBox="0.00 0.00 1344.00 616.00" xmlns="http://www.w3.org/2000/svg" xmlns:xlink="http://www.w3.org/1999/xlink">
<g id="graph0" class="graph" transform="scale(1 1) rotate(0) translate(4 612)">
<title>des</title>
<polygon style="fill:white;stroke:white;" points="-4,4 -4,-612 1340,-612 1340,4 -4,4"/>
<!-- u1 -->
<g id="node1" class="node"><title>u1</title>
<ellipse style="fill:blue;stroke:blue;" cx="10" cy="-580" rx="10" ry="10"/>
<text text-anchor="middle" x="10" y="-575.65" style="font-family:Times New Roman;font-size:14.00;fill:white;">1</text>
</g>
<!-- u1&#45;&#45;u1 -->
<g id="edge2" class="edge"><title>u1&#45;&#45;u1</title>
<path style="fill:none;stroke:none;" d="M6,-589C4,-598 5,-608 10,-608 15,-608 16,-598 14,-589"/>
</g>
<!-- u2 -->
<g id="node2" class="node"><title>u2</title>
<ellipse style="fill:blue;stroke:blue;" cx="38" cy="-580" rx="10" ry="10"/>
<text text-anchor="middle" x="38" y="-575.65" style="font-family:Times New Roman;font-size:14.00;fill:white;">2</text>
</g>
<!-- u1&#45;&#45;u2 -->
<g id="edge3" class="edge"><title>u1&#45;&#45;u2</title>
<path style="fill:none;stroke:none;" d="M20,-580C22,-580 25,-580 28,-580"/>
</g>
<!-- u3 -->
<g id="node3" class="node"><title>u3</title>
<ellipse style="fill:blue;stroke:blue;" cx="66" cy="-580" rx="10" ry="10"/>
<text text-anchor="middle" x="66" y="-575.65" style="font-family:Times New Roman;font-size:14.00;fill:white;">3</text>
</g>
<!-- u2&#45;&#45;u3 -->
<g id="edge4" class="edge"><title>u2&#45;&#45;u3</title>
<path style="fill:none;stroke:none;" d="M48,-580C50,-580 53,-580 56,-580"/>
</g>
<!-- u4 -->
<g id="node4" class="node"><title>u4</title>
<ellipse style="fill:blue;stroke:blue;" cx="94" cy="-580" rx="10" ry="10"/>
<text text-anchor="middle" x="94" y="-575.65" style="font-family:Times New Roman;font-size:14.00;fill:white;">4</text>
</g>
<!-- u3&#45;&#45;u4 -->
<g id="edge5" class="edge"><title>u3&#45;&#45;u4</title>
<path style="fill:none;stroke:none;" d="M76,-580C78,-580 81,-580 84,-580"/>
</g>
<!-- u5 -->
<g id="node5" class="node"><title>u5</title>
<ellipse style="fill:blue;stroke:blue;" cx="122" cy="-580" rx="10" ry="10"/>
<text text-anchor="middle" x="122" y="-575.65" style="font-family:Times New Roman;font-size:14.00;fill:white;">5</text>
</g>
<!-- u4&#45;&#45;u5 -->
<g id="edge6" class="edge"><title>u4&#45;&#45;u5</title>
<path style="fill:none;stroke:none;" d="M104,-580C106,-580 109,-580 112,-580"/>
</g>
<!-- u6 -->
<g id="node6" class="node"><title>u6</title>
<ellipse style="fill:blue;stroke:blue;" cx="150" cy="-580" rx="10" ry="10"/>
<text text-anchor="middle" x="150" y="-575.65" style="font-family:Times New Roman;font-size:14.00;fill:white;">6</text>
</g>
<!-- u5&#45;&#45;u6 -->
<g id="edge7" class="edge"><title>u5&#45;&#45;u6</title>
<path style="fill:none;stroke:none;" d="M132,-580C134,-580 137,-580 140,-580"/>
</g>
<!-- u7 -->
<g id="node7" class="node"><title>u7</title>
<ellipse style="fill:blue;stroke:blue;" cx="178" cy="-580" rx="10" ry="10"/>
<text text-anchor="middle" x="178" y="-575.65" style="font-family:Times New Roman;font-size:14.00;fill:white;">7</text>
</g>
<!-- u6&#45;&#45;u7 -->
<g id="edge8" class="edge"><title>u6&#45;&#45;u7</title>
<path style="fill:none;stroke:none;" d="M160,-580C162,-580 165,-580 168,-580"/>
</g>
<!-- u8 -->
<g id="node8" class="node"><title>u8</title>
<ellipse style="fill:blue;stroke:blue;" cx="206" cy="-580" rx="10" ry="10"/>
<text text-anchor="middle" x="206" y="-575.65" style="font-family:Times New Roman;font-size:14.00;fill:white;">8</text>
</g>
<!-- u7&#45;&#45;u8 -->
<g id="edge9" class="edge"><title>u7&#45;&#45;u8</title>
<path style="fill:none;stroke:none;" d="M188,-580C190,-580 193,-580 196,-580"/>
</g>
<!-- u9 -->
<g id="node9" class="node"><title>u9</title>
<ellipse style="fill:blue;stroke:blue;" cx="234" cy="-580" rx="10" ry="10"/>
<text text-anchor="middle" x="234" y="-575.65" style="font-family:Times New Roman;font-size:14.00;fill:white;">9</text>
</g>
<!-- u8&#45;&#45;u9 -->
<g id="edge10" class="edge"><title>u8&#45;&#45;u9</title>
<path style="fill:none;stroke:none;" d="M216,-580C218,-580 221,-580 224,-580"/>
</g>
<!-- u10 -->
<g id="node10" class="node"><title>u10</title>
<ellipse style="fill:blue;stroke:blue;" cx="262" cy="-580" rx="10" ry="10"/>
<text text-anchor="middle" x="262" y="-575.65" style="font-family:Times New Roman;font-size:14.00;fill:white;">10</text>
</g>
<!-- u9&#45;&#45;u10 -->
<g id="edge11" class="edge"><title>u9&#45;&#45;u10</title>
<path style="fill:none;stroke:none;" d="M244,-580C246,-580 249,-580 252,-580"/>
</g>
<!-- u11 -->
<g id="node11" class="node"><title>u11</title>
<ellipse style="fill:blue;stroke:blue;" cx="290" cy="-580" rx="10" ry="10"/>
<text text-anchor="middle" x="290" y="-575.65" style="font-family:Times New Roman;font-size:14.00;fill:white;">11</text>
</g>
<!-- u10&#45;&#45;u11 -->
<g id="edge12" class="edge"><title>u10&#45;&#45;u11</title>
<path style="fill:none;stroke:none;" d="M272,-580C274,-580 277,-580 280,-580"/>
</g>
<!-- u12 -->
<g id="node12" class="node"><title>u12</title>
<ellipse style="fill:blue;stroke:blue;" cx="318" cy="-580" rx="10" ry="10"/>
<text text-anchor="middle" x="318" y="-575.65" style="font-family:Times New Roman;font-size:14.00;fill:white;">12</text>
</g>
<!-- u11&#45;&#45;u12 -->
<g id="edge13" class="edge"><title>u11&#45;&#45;u12</title>
<path style="fill:none;stroke:none;" d="M300,-580C302,-580 305,-580 308,-580"/>
</g>
<!-- u13 -->
<g id="node13" class="node"><title>u13</title>
<ellipse style="fill:blue;stroke:blue;" cx="346" cy="-580" rx="10" ry="10"/>
<text text-anchor="middle" x="346" y="-575.65" style="font-family:Times New Roman;font-size:14.00;fill:white;">13</text>
</g>
<!-- u12&#45;&#45;u13 -->
<g id="edge14" class="edge"><title>u12&#45;&#45;u13</title>
<path style="fill:none;stroke:none;" d="M328,-580C330,-580 333,-580 336,-580"/>
</g>
<!-- u14 -->
<g id="node14" class="node"><title>u14</title>
<ellipse style="fill:blue;stroke:blue;" cx="374" cy="-580" rx="10" ry="10"/>
<text text-anchor="middle" x="374" y="-575.65" style="font-family:Times New Roman;font-size:14.00;fill:white;">14</text>
</g>
<!-- u13&#45;&#45;u14 -->
<g id="edge15" class="edge"><title>u13&#45;&#45;u14</title>
<path style="fill:none;stroke:none;" d="M356,-580C358,-580 361,-580 364,-580"/>
</g>
<!-- u15 -->
<g id="node15" class="node"><title>u15</title>
<ellipse style="fill:blue;stroke:blue;" cx="402" cy="-580" rx="10" ry="10"/>
<text text-anchor="middle" x="402" y="-575.65" style="font-family:Times New Roman;font-size:14.00;fill:white;">15</text>
</g>
<!-- u14&#45;&#45;u15 -->
<g id="edge16" class="edge"><title>u14&#45;&#45;u15</title>
<path style="fill:none;stroke:none;" d="M384,-580C386,-580 389,-580 392,-580"/>
</g>
<!-- u16 -->
<g id="node16" class="node"><title>u16</title>
<ellipse style="fill:blue;stroke:blue;" cx="430" cy="-580" rx="10" ry="10"/>
<text text-anchor="middle" x="430" y="-575.65" style="font-family:Times New Roman;font-size:14.00;fill:white;">16</text>
</g>
<!-- u15&#45;&#45;u16 -->
<g id="edge17" class="edge"><title>u15&#45;&#45;u16</title>
<path style="fill:none;stroke:none;" d="M412,-580C414,-580 417,-580 420,-580"/>
</g>
<!-- u17 -->
<g id="node17" class="node"><title>u17</title>
<ellipse style="fill:blue;stroke:blue;" cx="458" cy="-580" rx="10" ry="10"/>
<text text-anchor="middle" x="458" y="-575.65" style="font-family:Times New Roman;font-size:14.00;fill:white;">17</text>
</g>
<!-- u16&#45;&#45;u17 -->
<g id="edge18" class="edge"><title>u16&#45;&#45;u17</title>
<path style="fill:none;stroke:none;" d="M440,-580C442,-580 445,-580 448,-580"/>
</g>
<!-- u18 -->
<g id="node18" class="node"><title>u18</title>
<ellipse style="fill:blue;stroke:blue;" cx="486" cy="-580" rx="10" ry="10"/>
<text text-anchor="middle" x="486" y="-575.65" style="font-family:Times New Roman;font-size:14.00;fill:white;">18</text>
</g>
<!-- u17&#45;&#45;u18 -->
<g id="edge19" class="edge"><title>u17&#45;&#45;u18</title>
<path style="fill:none;stroke:none;" d="M468,-580C470,-580 473,-580 476,-580"/>
</g>
<!-- u19 -->
<g id="node19" class="node"><title>u19</title>
<ellipse style="fill:blue;stroke:blue;" cx="514" cy="-580" rx="10" ry="10"/>
<text text-anchor="middle" x="514" y="-575.65" style="font-family:Times New Roman;font-size:14.00;fill:white;">19</text>
</g>
<!-- u18&#45;&#45;u19 -->
<g id="edge20" class="edge"><title>u18&#45;&#45;u19</title>
<path style="fill:none;stroke:none;" d="M496,-580C498,-580 501,-580 504,-580"/>
</g>
<!-- u20 -->
<g id="node20" class="node"><title>u20</title>
<ellipse style="fill:blue;stroke:blue;" cx="542" cy="-580" rx="10" ry="10"/>
<text text-anchor="middle" x="542" y="-575.65" style="font-family:Times New Roman;font-size:14.00;fill:white;">20</text>
</g>
<!-- u19&#45;&#45;u20 -->
<g id="edge21" class="edge"><title>u19&#45;&#45;u20</title>
<path style="fill:none;stroke:none;" d="M524,-580C526,-580 529,-580 532,-580"/>
</g>
<!-- u21 -->
<g id="node21" class="node"><title>u21</title>
<ellipse style="fill:blue;stroke:blue;" cx="570" cy="-580" rx="10" ry="10"/>
<text text-anchor="middle" x="570" y="-575.65" style="font-family:Times New Roman;font-size:14.00;fill:white;">21</text>
</g>
<!-- u20&#45;&#45;u21 -->
<g id="edge22" class="edge"><title>u20&#45;&#45;u21</title>
<path style="fill:none;stroke:none;" d="M552,-580C554,-580 557,-580 560,-580"/>
</g>
<!-- u22 -->
<g id="node22" class="node"><title>u22</title>
<ellipse style="fill:blue;stroke:blue;" cx="598" cy="-580" rx="10" ry="10"/>
<text text-anchor="middle" x="598" y="-575.65" style="font-family:Times New Roman;font-size:14.00;fill:white;">22</text>
</g>
<!-- u21&#45;&#45;u22 -->
<g id="edge23" class="edge"><title>u21&#45;&#45;u22</title>
<path style="fill:none;stroke:none;" d="M580,-580C582,-580 585,-580 588,-580"/>
</g>
<!-- u23 -->
<g id="node23" class="node"><title>u23</title>
<ellipse style="fill:blue;stroke:blue;" cx="626" cy="-580" rx="10" ry="10"/>
<text text-anchor="middle" x="626" y="-575.65" style="font-family:Times New Roman;font-size:14.00;fill:white;">23</text>
</g>
<!-- u22&#45;&#45;u23 -->
<g id="edge24" class="edge"><title>u22&#45;&#45;u23</title>
<path style="fill:none;stroke:none;" d="M608,-580C610,-580 613,-580 616,-580"/>
</g>
<!-- u24 -->
<g id="node24" class="node"><title>u24</title>
<ellipse style="fill:blue;stroke:blue;" cx="654" cy="-580" rx="10" ry="10"/>
<text text-anchor="middle" x="654" y="-575.65" style="font-family:Times New Roman;font-size:14.00;fill:white;">24</text>
</g>
<!-- u23&#45;&#45;u24 -->
<g id="edge25" class="edge"><title>u23&#45;&#45;u24</title>
<path style="fill:none;stroke:none;" d="M636,-580C638,-580 641,-580 644,-580"/>
</g>
<!-- u25 -->
<g id="node25" class="node"><title>u25</title>
<ellipse style="fill:blue;stroke:blue;" cx="682" cy="-580" rx="10" ry="10"/>
<text text-anchor="middle" x="682" y="-575.65" style="font-family:Times New Roman;font-size:14.00;fill:white;">25</text>
</g>
<!-- u24&#45;&#45;u25 -->
<g id="edge26" class="edge"><title>u24&#45;&#45;u25</title>
<path style="fill:none;stroke:none;" d="M664,-580C666,-580 669,-580 672,-580"/>
</g>
<!-- u26 -->
<g id="node26" class="node"><title>u26</title>
<ellipse style="fill:blue;stroke:blue;" cx="710" cy="-580" rx="10" ry="10"/>
<text text-anchor="middle" x="710" y="-575.65" style="font-family:Times New Roman;font-size:14.00;fill:white;">26</text>
</g>
<!-- u25&#45;&#45;u26 -->
<g id="edge27" class="edge"><title>u25&#45;&#45;u26</title>
<path style="fill:none;stroke:none;" d="M692,-580C694,-580 697,-580 700,-580"/>
</g>
<!-- u27 -->
<g id="node27" class="node"><title>u27</title>
<ellipse style="fill:blue;stroke:blue;" cx="738" cy="-580" rx="10" ry="10"/>
<text text-anchor="middle" x="738" y="-575.65" style="font-family:Times New Roman;font-size:14.00;fill:white;">27</text>
</g>
<!-- u26&#45;&#45;u27 -->
<g id="edge28" class="edge"><title>u26&#45;&#45;u27</title>
<path style="fill:none;stroke:none;" d="M720,-580C722,-580 725,-580 728,-580"/>
</g>
<!-- u28 -->
<g id="node28" class="node"><title>u28</title>
<ellipse style="fill:blue;stroke:blue;" cx="766" cy="-580" rx="10" ry="10"/>
<text text-anchor="middle" x="766" y="-575.65" style="font-family:Times New Roman;font-size:14.00;fill:white;">28</text>
</g>
<!-- u27&#45;&#45;u28 -->
<g id="edge29" class="edge"><title>u27&#45;&#45;u28</title>
<path style="fill:none;stroke:none;" d="M748,-580C750,-580 753,-580 756,-580"/>
</g>
<!-- u29 -->
<g id="node29" class="node"><title>u29</title>
<ellipse style="fill:blue;stroke:blue;" cx="794" cy="-580" rx="10" ry="10"/>
<text text-anchor="middle" x="794" y="-575.65" style="font-family:Times New Roman;font-size:14.00;fill:white;">29</text>
</g>
<!-- u28&#45;&#45;u29 -->
<g id="edge30" class="edge"><title>u28&#45;&#45;u29</title>
<path style="fill:none;stroke:none;" d="M776,-580C778,-580 781,-580 784,-580"/>
</g>
<!-- u30 -->
<g id="node30" class="node"><title>u30</title>
<ellipse style="fill:blue;stroke:blue;" cx="822" cy="-580" rx="10" ry="10"/>
<text text-anchor="middle" x="822" y="-575.65" style="font-family:Times New Roman;font-size:14.00;fill:white;">30</text>
</g>
<!-- u29&#45;&#45;u30 -->
<g id="edge31" class="edge"><title>u29&#45;&#45;u30</title>
<path style="fill:none;stroke:none;" d="M804,-580C806,-580 809,-580 812,-580"/>
</g>
<!-- u31 -->
<g id="node31" class="node"><title>u31</title>
<ellipse style="fill:blue;stroke:blue;" cx="850" cy="-580" rx="10" ry="10"/>
<text text-anchor="middle" x="850" y="-575.65" style="font-family:Times New Roman;font-size:14.00;fill:white;">31</text>
</g>
<!-- u30&#45;&#45;u31 -->
<g id="edge32" class="edge"><title>u30&#45;&#45;u31</title>
<path style="fill:none;stroke:none;" d="M832,-580C834,-580 837,-580 840,-580"/>
</g>
<!-- u32 -->
<g id="node32" class="node"><title>u32</title>
<ellipse style="fill:blue;stroke:blue;" cx="878" cy="-580" rx="10" ry="10"/>
<text text-anchor="middle" x="878" y="-575.65" style="font-family:Times New Roman;font-size:14.00;fill:white;">32</text>
</g>
<!-- u31&#45;&#45;u32 -->
<g id="edge33" class="edge"><title>u31&#45;&#45;u32</title>
<path style="fill:none;stroke:none;" d="M860,-580C862,-580 865,-580 868,-580"/>
</g>
<!-- l1 -->
<g id="node33" class="node"><title>l1</title>
<ellipse style="fill:blue;stroke:blue;" cx="10" cy="-10" rx="10" ry="10"/>
<text text-anchor="middle" x="10" y="-5.65" style="font-family:Times New Roman;font-size:14.00;fill:white;">1</text>
</g>
<!-- l1&#45;&#45;u32 -->
<g id="edge84" class="edge"><title>l1&#45;&#45;u32</title>
<path style="fill:none;stroke:black;" d="M19,-16C103,-71 786,-520 870,-574"/>
</g>
<!-- l1&#45;&#45;l1 -->
<g id="edge35" class="edge"><title>l1&#45;&#45;l1</title>
<path style="fill:none;stroke:none;" d="M6,-19C4,-28 5,-38 10,-38 15,-38 16,-28 14,-19"/>
</g>
<!-- l2 -->
<g id="node34" class="node"><title>l2</title>
<ellipse style="fill:blue;stroke:blue;" cx="38" cy="-10" rx="10" ry="10"/>
<text text-anchor="middle" x="38" y="-5.65" style="font-family:Times New Roman;font-size:14.00;fill:white;">2</text>
</g>
<!-- l1&#45;&#45;l2 -->
<g id="edge36" class="edge"><title>l1&#45;&#45;l2</title>
<path style="fill:none;stroke:none;" d="M20,-10C22,-10 25,-10 28,-10"/>
</g>
<!-- l2&#45;&#45;u1 -->
<g id="edge86" class="edge"><title>l2&#45;&#45;u1</title>
<path style="fill:none;stroke:black;" d="M37,-20C34,-90 14,-499 11,-570"/>
</g>
<!-- l3 -->
<g id="node35" class="node"><title>l3</title>
<ellipse style="fill:blue;stroke:blue;" cx="66" cy="-10" rx="10" ry="10"/>
<text text-anchor="middle" x="66" y="-5.65" style="font-family:Times New Roman;font-size:14.00;fill:white;">3</text>
</g>
<!-- l2&#45;&#45;l3 -->
<g id="edge37" class="edge"><title>l2&#45;&#45;l3</title>
<path style="fill:none;stroke:none;" d="M48,-10C50,-10 53,-10 56,-10"/>
</g>
<!-- l3&#45;&#45;u2 -->
<g id="edge88" class="edge"><title>l3&#45;&#45;u2</title>
<path style="fill:none;stroke:black;" d="M65,-20C62,-90 42,-499 39,-570"/>
</g>
<!-- l4 -->
<g id="node36" class="node"><title>l4</title>
<ellipse style="fill:blue;stroke:blue;" cx="94" cy="-10" rx="10" ry="10"/>
<text text-anchor="middle" x="94" y="-5.65" style="font-family:Times New Roman;font-size:14.00;fill:white;">4</text>
</g>
<!-- l3&#45;&#45;l4 -->
<g id="edge38" class="edge"><title>l3&#45;&#45;l4</title>
<path style="fill:none;stroke:none;" d="M76,-10C78,-10 81,-10 84,-10"/>
</g>
<!-- l4&#45;&#45;u3 -->
<g id="edge90" class="edge"><title>l4&#45;&#45;u3</title>
<path style="fill:none;stroke:black;" d="M93,-20C90,-90 70,-499 67,-570"/>
</g>
<!-- l5 -->
<g id="node37" class="node"><title>l5</title>
<ellipse style="fill:blue;stroke:blue;" cx="122" cy="-10" rx="10" ry="10"/>
<text text-anchor="middle" x="122" y="-5.65" style="font-family:Times New Roman;font-size:14.00;fill:white;">5</text>
</g>
<!-- l4&#45;&#45;l5 -->
<g id="edge39" class="edge"><title>l4&#45;&#45;l5</title>
<path style="fill:none;stroke:none;" d="M104,-10C106,-10 109,-10 112,-10"/>
</g>
<!-- l5&#45;&#45;u4 -->
<g id="edge92" class="edge"><title>l5&#45;&#45;u4</title>
<path style="fill:none;stroke:black;" d="M121,-20C118,-90 98,-499 95,-570"/>
</g>
<!-- l6 -->
<g id="node38" class="node"><title>l6</title>
<ellipse style="fill:blue;stroke:blue;" cx="150" cy="-10" rx="10" ry="10"/>
<text text-anchor="middle" x="150" y="-5.65" style="font-family:Times New Roman;font-size:14.00;fill:white;">6</text>
</g>
<!-- l5&#45;&#45;l6 -->
<g id="edge40" class="edge"><title>l5&#45;&#45;l6</title>
<path style="fill:none;stroke:none;" d="M132,-10C134,-10 137,-10 140,-10"/>
</g>
<!-- l6&#45;&#45;u5 -->
<g id="edge94" class="edge"><title>l6&#45;&#45;u5</title>
<path style="fill:none;stroke:black;" d="M149,-20C146,-90 126,-499 123,-570"/>
</g>
<!-- l7 -->
<g id="node39" class="node"><title>l7</title>
<ellipse style="fill:blue;stroke:blue;" cx="178" cy="-10" rx="10" ry="10"/>
<text text-anchor="middle" x="178" y="-5.65" style="font-family:Times New Roman;font-size:14.00;fill:white;">7</text>
</g>
<!-- l6&#45;&#45;l7 -->
<g id="edge41" class="edge"><title>l6&#45;&#45;l7</title>
<path style="fill:none;stroke:none;" d="M160,-10C162,-10 165,-10 168,-10"/>
</g>
<!-- l7&#45;&#45;u4 -->
<g id="edge96" class="edge"><title>l7&#45;&#45;u4</title>
<path style="fill:none;stroke:black;" d="M177,-20C166,-90 106,-501 95,-570"/>
</g>
<!-- l8 -->
<g id="node40" class="node"><title>l8</title>
<ellipse style="fill:blue;stroke:blue;" cx="206" cy="-10" rx="10" ry="10"/>
<text text-anchor="middle" x="206" y="-5.65" style="font-family:Times New Roman;font-size:14.00;fill:white;">8</text>
</g>
<!-- l7&#45;&#45;l8 -->
<g id="edge42" class="edge"><title>l7&#45;&#45;l8</title>
<path style="fill:none;stroke:none;" d="M188,-10C190,-10 193,-10 196,-10"/>
</g>
<!-- l8&#45;&#45;u5 -->
<g id="edge98" class="edge"><title>l8&#45;&#45;u5</title>
<path style="fill:none;stroke:black;" d="M205,-20C194,-90 134,-501 123,-570"/>
</g>
<!-- l9 -->
<g id="node41" class="node"><title>l9</title>
<ellipse style="fill:blue;stroke:blue;" cx="234" cy="-10" rx="10" ry="10"/>
<text text-anchor="middle" x="234" y="-5.65" style="font-family:Times New Roman;font-size:14.00;fill:white;">9</text>
</g>
<!-- l8&#45;&#45;l9 -->
<g id="edge43" class="edge"><title>l8&#45;&#45;l9</title>
<path style="fill:none;stroke:none;" d="M216,-10C218,-10 221,-10 224,-10"/>
</g>
<!-- l9&#45;&#45;u6 -->
<g id="edge100" class="edge"><title>l9&#45;&#45;u6</title>
<path style="fill:none;stroke:black;" d="M233,-20C222,-90 162,-501 151,-570"/>
</g>
<!-- l10 -->
<g id="node42" class="node"><title>l10</title>
<ellipse style="fill:blue;stroke:blue;" cx="262" cy="-10" rx="10" ry="10"/>
<text text-anchor="middle" x="262" y="-5.65" style="font-family:Times New Roman;font-size:14.00;fill:white;">10</text>
</g>
<!-- l9&#45;&#45;l10 -->
<g id="edge44" class="edge"><title>l9&#45;&#45;l10</title>
<path style="fill:none;stroke:none;" d="M244,-10C246,-10 249,-10 252,-10"/>
</g>
<!-- l10&#45;&#45;u7 -->
<g id="edge102" class="edge"><title>l10&#45;&#45;u7</title>
<path style="fill:none;stroke:black;" d="M261,-20C250,-90 190,-501 179,-570"/>
</g>
<!-- l11 -->
<g id="node43" class="node"><title>l11</title>
<ellipse style="fill:blue;stroke:blue;" cx="290" cy="-10" rx="10" ry="10"/>
<text text-anchor="middle" x="290" y="-5.65" style="font-family:Times New Roman;font-size:14.00;fill:white;">11</text>
</g>
<!-- l10&#45;&#45;l11 -->
<g id="edge45" class="edge"><title>l10&#45;&#45;l11</title>
<path style="fill:none;stroke:none;" d="M272,-10C274,-10 277,-10 280,-10"/>
</g>
<!-- l11&#45;&#45;u8 -->
<g id="edge104" class="edge"><title>l11&#45;&#45;u8</title>
<path style="fill:none;stroke:black;" d="M289,-20C278,-90 218,-501 207,-570"/>
</g>
<!-- l12 -->
<g id="node44" class="node"><title>l12</title>
<ellipse style="fill:blue;stroke:blue;" cx="318" cy="-10" rx="10" ry="10"/>
<text text-anchor="middle" x="318" y="-5.65" style="font-family:Times New Roman;font-size:14.00;fill:white;">12</text>
</g>
<!-- l11&#45;&#45;l12 -->
<g id="edge46" class="edge"><title>l11&#45;&#45;l12</title>
<path style="fill:none;stroke:none;" d="M300,-10C302,-10 305,-10 308,-10"/>
</g>
<!-- l12&#45;&#45;u9 -->
<g id="edge106" class="edge"><title>l12&#45;&#45;u9</title>
<path style="fill:none;stroke:black;" d="M317,-20C306,-90 246,-501 235,-570"/>
</g>
<!-- l13 -->
<g id="node45" class="node"><title>l13</title>
<ellipse style="fill:blue;stroke:blue;" cx="346" cy="-10" rx="10" ry="10"/>
<text text-anchor="middle" x="346" y="-5.65" style="font-family:Times New Roman;font-size:14.00;fill:white;">13</text>
</g>
<!-- l12&#45;&#45;l13 -->
<g id="edge47" class="edge"><title>l12&#45;&#45;l13</title>
<path style="fill:none;stroke:none;" d="M328,-10C330,-10 333,-10 336,-10"/>
</g>
<!-- l13&#45;&#45;u8 -->
<g id="edge108" class="edge"><title>l13&#45;&#45;u8</title>
<path style="fill:none;stroke:black;" d="M344,-20C327,-88 225,-500 208,-570"/>
</g>
<!-- l14 -->
<g id="node46" class="node"><title>l14</title>
<ellipse style="fill:blue;stroke:blue;" cx="374" cy="-10" rx="10" ry="10"/>
<text text-anchor="middle" x="374" y="-5.65" style="font-family:Times New Roman;font-size:14.00;fill:white;">14</text>
</g>
<!-- l13&#45;&#45;l14 -->
<g id="edge48" class="edge"><title>l13&#45;&#45;l14</title>
<path style="fill:none;stroke:none;" d="M356,-10C358,-10 361,-10 364,-10"/>
</g>
<!-- l14&#45;&#45;u9 -->
<g id="edge110" class="edge"><title>l14&#45;&#45;u9</title>
<path style="fill:none;stroke:black;" d="M372,-20C355,-88 253,-500 236,-570"/>
</g>
<!-- l15 -->
<g id="node47" class="node"><title>l15</title>
<ellipse style="fill:blue;stroke:blue;" cx="402" cy="-10" rx="10" ry="10"/>
<text text-anchor="middle" x="402" y="-5.65" style="font-family:Times New Roman;font-size:14.00;fill:white;">15</text>
</g>
<!-- l14&#45;&#45;l15 -->
<g id="edge49" class="edge"><title>l14&#45;&#45;l15</title>
<path style="fill:none;stroke:none;" d="M384,-10C386,-10 389,-10 392,-10"/>
</g>
<!-- l15&#45;&#45;u10 -->
<g id="edge112" class="edge"><title>l15&#45;&#45;u10</title>
<path style="fill:none;stroke:black;" d="M400,-20C383,-88 281,-500 264,-570"/>
</g>
<!-- l16 -->
<g id="node48" class="node"><title>l16</title>
<ellipse style="fill:blue;stroke:blue;" cx="430" cy="-10" rx="10" ry="10"/>
<text text-anchor="middle" x="430" y="-5.65" style="font-family:Times New Roman;font-size:14.00;fill:white;">16</text>
</g>
<!-- l15&#45;&#45;l16 -->
<g id="edge50" class="edge"><title>l15&#45;&#45;l16</title>
<path style="fill:none;stroke:none;" d="M412,-10C414,-10 417,-10 420,-10"/>
</g>
<!-- l16&#45;&#45;u11 -->
<g id="edge114" class="edge"><title>l16&#45;&#45;u11</title>
<path style="fill:none;stroke:black;" d="M428,-20C411,-88 309,-500 292,-570"/>
</g>
<!-- l17 -->
<g id="node49" class="node"><title>l17</title>
<ellipse style="fill:blue;stroke:blue;" cx="458" cy="-10" rx="10" ry="10"/>
<text text-anchor="middle" x="458" y="-5.65" style="font-family:Times New Roman;font-size:14.00;fill:white;">17</text>
</g>
<!-- l16&#45;&#45;l17 -->
<g id="edge51" class="edge"><title>l16&#45;&#45;l17</title>
<path style="fill:none;stroke:none;" d="M440,-10C442,-10 445,-10 448,-10"/>
</g>
<!-- l17&#45;&#45;u12 -->
<g id="edge116" class="edge"><title>l17&#45;&#45;u12</title>
<path style="fill:none;stroke:black;" d="M456,-20C439,-88 337,-500 320,-570"/>
</g>
<!-- l18 -->
<g id="node50" class="node"><title>l18</title>
<ellipse style="fill:blue;stroke:blue;" cx="486" cy="-10" rx="10" ry="10"/>
<text text-anchor="middle" x="486" y="-5.65" style="font-family:Times New Roman;font-size:14.00;fill:white;">18</text>
</g>
<!-- l17&#45;&#45;l18 -->
<g id="edge52" class="edge"><title>l17&#45;&#45;l18</title>
<path style="fill:none;stroke:none;" d="M468,-10C470,-10 473,-10 476,-10"/>
</g>
<!-- l18&#45;&#45;u13 -->
<g id="edge118" class="edge"><title>l18&#45;&#45;u13</title>
<path style="fill:none;stroke:black;" d="M484,-20C467,-88 365,-500 348,-570"/>
</g>
<!-- l19 -->
<g id="node51" class="node"><title>l19</title>
<ellipse style="fill:blue;stroke:blue;" cx="514" cy="-10" rx="10" ry="10"/>
<text text-anchor="middle" x="514" y="-5.65" style="font-family:Times New Roman;font-size:14.00;fill:white;">19</text>
</g>
<!-- l18&#45;&#45;l19 -->
<g id="edge53" class="edge"><title>l18&#45;&#45;l19</title>
<path style="fill:none;stroke:none;" d="M496,-10C498,-10 501,-10 504,-10"/>
</g>
<!-- l19&#45;&#45;u12 -->
<g id="edge120" class="edge"><title>l19&#45;&#45;u12</title>
<path style="fill:none;stroke:black;" d="M511,-20C487,-88 345,-500 321,-570"/>
</g>
<!-- l20 -->
<g id="node52" class="node"><title>l20</title>
<ellipse style="fill:blue;stroke:blue;" cx="542" cy="-10" rx="10" ry="10"/>
<text text-anchor="middle" x="542" y="-5.65" style="font-family:Times New Roman;font-size:14.00;fill:white;">20</text>
</g>
<!-- l19&#45;&#45;l20 -->
<g id="edge54" class="edge"><title>l19&#45;&#45;l20</title>
<path style="fill:none;stroke:none;" d="M524,-10C526,-10 529,-10 532,-10"/>
</g>
<!-- l20&#45;&#45;u13 -->
<g id="edge122" class="edge"><title>l20&#45;&#45;u13</title>
<path style="fill:none;stroke:black;" d="M539,-20C515,-88 373,-500 349,-570"/>
</g>
<!-- l21 -->
<g id="node53" class="node"><title>l21</title>
<ellipse style="fill:blue;stroke:blue;" cx="570" cy="-10" rx="10" ry="10"/>
<text text-anchor="middle" x="570" y="-5.65" style="font-family:Times New Roman;font-size:14.00;fill:white;">21</text>
</g>
<!-- l20&#45;&#45;l21 -->
<g id="edge55" class="edge"><title>l20&#45;&#45;l21</title>
<path style="fill:none;stroke:none;" d="M552,-10C554,-10 557,-10 560,-10"/>
</g>
<!-- l21&#45;&#45;u14 -->
<g id="edge124" class="edge"><title>l21&#45;&#45;u14</title>
<path style="fill:none;stroke:black;" d="M567,-20C543,-88 401,-500 377,-570"/>
</g>
<!-- l22 -->
<g id="node54" class="node"><title>l22</title>
<ellipse style="fill:blue;stroke:blue;" cx="598" cy="-10" rx="10" ry="10"/>
<text text-anchor="middle" x="598" y="-5.65" style="font-family:Times New Roman;font-size:14.00;fill:white;">22</text>
</g>
<!-- l21&#45;&#45;l22 -->
<g id="edge56" class="edge"><title>l21&#45;&#45;l22</title>
<path style="fill:none;stroke:none;" d="M580,-10C582,-10 585,-10 588,-10"/>
</g>
<!-- l22&#45;&#45;u15 -->
<g id="edge126" class="edge"><title>l22&#45;&#45;u15</title>
<path style="fill:none;stroke:black;" d="M595,-20C571,-88 429,-500 405,-570"/>
</g>
<!-- l23 -->
<g id="node55" class="node"><title>l23</title>
<ellipse style="fill:blue;stroke:blue;" cx="626" cy="-10" rx="10" ry="10"/>
<text text-anchor="middle" x="626" y="-5.65" style="font-family:Times New Roman;font-size:14.00;fill:white;">23</text>
</g>
<!-- l22&#45;&#45;l23 -->
<g id="edge57" class="edge"><title>l22&#45;&#45;l23</title>
<path style="fill:none;stroke:none;" d="M608,-10C610,-10 613,-10 616,-10"/>
</g>
<!-- l23&#45;&#45;u16 -->
<g id="edge128" class="edge"><title>l23&#45;&#45;u16</title>
<path style="fill:none;stroke:black;" d="M623,-20C599,-88 457,-500 433,-570"/>
</g>
<!-- l24 -->
<g id="node56" class="node"><title>l24</title>
<ellipse style="fill:blue;stroke:blue;" cx="654" cy="-10" rx="10" ry="10"/>
<text text-anchor="middle" x="654" y="-5.65" style="font-family:Times New Roman;font-size:14.00;fill:white;">24</text>
</g>
<!-- l23&#45;&#45;l24 -->
<g id="edge58" class="edge"><title>l23&#45;&#45;l24</title>
<path style="fill:none;stroke:none;" d="M636,-10C638,-10 641,-10 644,-10"/>
</g>
<!-- l24&#45;&#45;u17 -->
<g id="edge130" class="edge"><title>l24&#45;&#45;u17</title>
<path style="fill:none;stroke:black;" d="M651,-20C627,-88 485,-500 461,-570"/>
</g>
<!-- l25 -->
<g id="node57" class="node"><title>l25</title>
<ellipse style="fill:blue;stroke:blue;" cx="682" cy="-10" rx="10" ry="10"/>
<text text-anchor="middle" x="682" y="-5.65" style="font-family:Times New Roman;font-size:14.00;fill:white;">25</text>
</g>
<!-- l24&#45;&#45;l25 -->
<g id="edge59" class="edge"><title>l24&#45;&#45;l25</title>
<path style="fill:none;stroke:none;" d="M664,-10C666,-10 669,-10 672,-10"/>
</g>
<!-- l25&#45;&#45;u16 -->
<g id="edge132" class="edge"><title>l25&#45;&#45;u16</title>
<path style="fill:none;stroke:black;" d="M678,-19C648,-87 464,-502 434,-571"/>
</g>
<!-- l26 -->
<g id="node58" class="node"><title>l26</title>
<ellipse style="fill:blue;stroke:blue;" cx="710" cy="-10" rx="10" ry="10"/>
<text text-anchor="middle" x="710" y="-5.65" style="font-family:Times New Roman;font-size:14.00;fill:white;">26</text>
</g>
<!-- l25&#45;&#45;l26 -->
<g id="edge60" class="edge"><title>l25&#45;&#45;l26</title>
<path style="fill:none;stroke:none;" d="M692,-10C694,-10 697,-10 700,-10"/>
</g>
<!-- l26&#45;&#45;u17 -->
<g id="edge134" class="edge"><title>l26&#45;&#45;u17</title>
<path style="fill:none;stroke:black;" d="M706,-19C676,-87 492,-502 462,-571"/>
</g>
<!-- l27 -->
<g id="node59" class="node"><title>l27</title>
<ellipse style="fill:blue;stroke:blue;" cx="738" cy="-10" rx="10" ry="10"/>
<text text-anchor="middle" x="738" y="-5.65" style="font-family:Times New Roman;font-size:14.00;fill:white;">27</text>
</g>
<!-- l26&#45;&#45;l27 -->
<g id="edge61" class="edge"><title>l26&#45;&#45;l27</title>
<path style="fill:none;stroke:none;" d="M720,-10C722,-10 725,-10 728,-10"/>
</g>
<!-- l27&#45;&#45;u18 -->
<g id="edge136" class="edge"><title>l27&#45;&#45;u18</title>
<path style="fill:none;stroke:black;" d="M734,-19C704,-87 520,-502 490,-571"/>
</g>
<!-- l28 -->
<g id="node60" class="node"><title>l28</title>
<ellipse style="fill:blue;stroke:blue;" cx="766" cy="-10" rx="10" ry="10"/>
<text text-anchor="middle" x="766" y="-5.65" style="font-family:Times New Roman;font-size:14.00;fill:white;">28</text>
</g>
<!-- l27&#45;&#45;l28 -->
<g id="edge62" class="edge"><title>l27&#45;&#45;l28</title>
<path style="fill:none;stroke:none;" d="M748,-10C750,-10 753,-10 756,-10"/>
</g>
<!-- l28&#45;&#45;u19 -->
<g id="edge138" class="edge"><title>l28&#45;&#45;u19</title>
<path style="fill:none;stroke:black;" d="M762,-19C732,-87 548,-502 518,-571"/>
</g>
<!-- l29 -->
<g id="node61" class="node"><title>l29</title>
<ellipse style="fill:blue;stroke:blue;" cx="794" cy="-10" rx="10" ry="10"/>
<text text-anchor="middle" x="794" y="-5.65" style="font-family:Times New Roman;font-size:14.00;fill:white;">29</text>
</g>
<!-- l28&#45;&#45;l29 -->
<g id="edge63" class="edge"><title>l28&#45;&#45;l29</title>
<path style="fill:none;stroke:none;" d="M776,-10C778,-10 781,-10 784,-10"/>
</g>
<!-- l29&#45;&#45;u20 -->
<g id="edge140" class="edge"><title>l29&#45;&#45;u20</title>
<path style="fill:none;stroke:black;" d="M790,-19C760,-87 576,-502 546,-571"/>
</g>
<!-- l30 -->
<g id="node62" class="node"><title>l30</title>
<ellipse style="fill:blue;stroke:blue;" cx="822" cy="-10" rx="10" ry="10"/>
<text text-anchor="middle" x="822" y="-5.65" style="font-family:Times New Roman;font-size:14.00;fill:white;">30</text>
</g>
<!-- l29&#45;&#45;l30 -->
<g id="edge64" class="edge"><title>l29&#45;&#45;l30</title>
<path style="fill:none;stroke:none;" d="M804,-10C806,-10 809,-10 812,-10"/>
</g>
<!-- l30&#45;&#45;u21 -->
<g id="edge142" class="edge"><title>l30&#45;&#45;u21</title>
<path style="fill:none;stroke:black;" d="M818,-19C788,-87 604,-502 574,-571"/>
</g>
<!-- l31 -->
<g id="node63" class="node"><title>l31</title>
<ellipse style="fill:blue;stroke:blue;" cx="850" cy="-10" rx="10" ry="10"/>
<text text-anchor="middle" x="850" y="-5.65" style="font-family:Times New Roman;font-size:14.00;fill:white;">31</text>
</g>
<!-- l30&#45;&#45;l31 -->
<g id="edge65" class="edge"><title>l30&#45;&#45;l31</title>
<path style="fill:none;stroke:none;" d="M832,-10C834,-10 837,-10 840,-10"/>
</g>
<!-- l31&#45;&#45;u20 -->
<g id="edge144" class="edge"><title>l31&#45;&#45;u20</title>
<path style="fill:none;stroke:black;" d="M845,-19C809,-86 583,-505 547,-571"/>
</g>
<!-- l32 -->
<g id="node64" class="node"><title>l32</title>
<ellipse style="fill:blue;stroke:blue;" cx="878" cy="-10" rx="10" ry="10"/>
<text text-anchor="middle" x="878" y="-5.65" style="font-family:Times New Roman;font-size:14.00;fill:white;">32</text>
</g>
<!-- l31&#45;&#45;l32 -->
<g id="edge66" class="edge"><title>l31&#45;&#45;l32</title>
<path style="fill:none;stroke:none;" d="M860,-10C862,-10 865,-10 868,-10"/>
</g>
<!-- l32&#45;&#45;u21 -->
<g id="edge146" class="edge"><title>l32&#45;&#45;u21</title>
<path style="fill:none;stroke:black;" d="M873,-19C837,-86 611,-505 575,-571"/>
</g>
<!-- l33 -->
<g id="node65" class="node"><title>l33</title>
<ellipse style="fill:blue;stroke:blue;" cx="906" cy="-10" rx="10" ry="10"/>
<text text-anchor="middle" x="906" y="-5.65" style="font-family:Times New Roman;font-size:14.00;fill:white;">33</text>
</g>
<!-- l32&#45;&#45;l33 -->
<g id="edge67" class="edge"><title>l32&#45;&#45;l33</title>
<path style="fill:none;stroke:none;" d="M888,-10C890,-10 893,-10 896,-10"/>
</g>
<!-- l33&#45;&#45;u22 -->
<g id="edge148" class="edge"><title>l33&#45;&#45;u22</title>
<path style="fill:none;stroke:black;" d="M901,-19C865,-86 639,-505 603,-571"/>
</g>
<!-- l34 -->
<g id="node66" class="node"><title>l34</title>
<ellipse style="fill:blue;stroke:blue;" cx="934" cy="-10" rx="10" ry="10"/>
<text text-anchor="middle" x="934" y="-5.65" style="font-family:Times New Roman;font-size:14.00;fill:white;">34</text>
</g>
<!-- l33&#45;&#45;l34 -->
<g id="edge68" class="edge"><title>l33&#45;&#45;l34</title>
<path style="fill:none;stroke:none;" d="M916,-10C918,-10 921,-10 924,-10"/>
</g>
<!-- l34&#45;&#45;u23 -->
<g id="edge150" class="edge"><title>l34&#45;&#45;u23</title>
<path style="fill:none;stroke:black;" d="M929,-19C893,-86 667,-505 631,-571"/>
</g>
<!-- l35 -->
<g id="node67" class="node"><title>l35</title>
<ellipse style="fill:blue;stroke:blue;" cx="962" cy="-10" rx="10" ry="10"/>
<text text-anchor="middle" x="962" y="-5.65" style="font-family:Times New Roman;font-size:14.00;fill:white;">35</text>
</g>
<!-- l34&#45;&#45;l35 -->
<g id="edge69" class="edge"><title>l34&#45;&#45;l35</title>
<path style="fill:none;stroke:none;" d="M944,-10C946,-10 949,-10 952,-10"/>
</g>
<!-- l35&#45;&#45;u24 -->
<g id="edge152" class="edge"><title>l35&#45;&#45;u24</title>
<path style="fill:none;stroke:black;" d="M957,-19C921,-86 695,-505 659,-571"/>
</g>
<!-- l36 -->
<g id="node68" class="node"><title>l36</title>
<ellipse style="fill:blue;stroke:blue;" cx="990" cy="-10" rx="10" ry="10"/>
<text text-anchor="middle" x="990" y="-5.65" style="font-family:Times New Roman;font-size:14.00;fill:white;">36</text>
</g>
<!-- l35&#45;&#45;l36 -->
<g id="edge70" class="edge"><title>l35&#45;&#45;l36</title>
<path style="fill:none;stroke:none;" d="M972,-10C974,-10 977,-10 980,-10"/>
</g>
<!-- l36&#45;&#45;u25 -->
<g id="edge154" class="edge"><title>l36&#45;&#45;u25</title>
<path style="fill:none;stroke:black;" d="M985,-19C949,-86 723,-505 687,-571"/>
</g>
<!-- l37 -->
<g id="node69" class="node"><title>l37</title>
<ellipse style="fill:blue;stroke:blue;" cx="1018" cy="-10" rx="10" ry="10"/>
<text text-anchor="middle" x="1018" y="-5.65" style="font-family:Times New Roman;font-size:14.00;fill:white;">37</text>
</g>
<!-- l36&#45;&#45;l37 -->
<g id="edge71" class="edge"><title>l36&#45;&#45;l37</title>
<path style="fill:none;stroke:none;" d="M1000,-10C1002,-10 1005,-10 1008,-10"/>
</g>
<!-- l37&#45;&#45;u24 -->
<g id="edge156" class="edge"><title>l37&#45;&#45;u24</title>
<path style="fill:none;stroke:black;" d="M1013,-19C971,-84 701,-507 659,-572"/>
</g>
<!-- l38 -->
<g id="node70" class="node"><title>l38</title>
<ellipse style="fill:blue;stroke:blue;" cx="1046" cy="-10" rx="10" ry="10"/>
<text text-anchor="middle" x="1046" y="-5.65" style="font-family:Times New Roman;font-size:14.00;fill:white;">38</text>
</g>
<!-- l37&#45;&#45;l38 -->
<g id="edge72" class="edge"><title>l37&#45;&#45;l38</title>
<path style="fill:none;stroke:none;" d="M1028,-10C1030,-10 1033,-10 1036,-10"/>
</g>
<!-- l38&#45;&#45;u25 -->
<g id="edge158" class="edge"><title>l38&#45;&#45;u25</title>
<path style="fill:none;stroke:black;" d="M1041,-19C999,-84 729,-507 687,-572"/>
</g>
<!-- l39 -->
<g id="node71" class="node"><title>l39</title>
<ellipse style="fill:blue;stroke:blue;" cx="1074" cy="-10" rx="10" ry="10"/>
<text text-anchor="middle" x="1074" y="-5.65" style="font-family:Times New Roman;font-size:14.00;fill:white;">39</text>
</g>
<!-- l38&#45;&#45;l39 -->
<g id="edge73" class="edge"><title>l38&#45;&#45;l39</title>
<path style="fill:none;stroke:none;" d="M1056,-10C1058,-10 1061,-10 1064,-10"/>
</g>
<!-- l39&#45;&#45;u26 -->
<g id="edge160" class="edge"><title>l39&#45;&#45;u26</title>
<path style="fill:none;stroke:black;" d="M1069,-19C1027,-84 757,-507 715,-572"/>
</g>
<!-- l40 -->
<g id="node72" class="node"><title>l40</title>
<ellipse style="fill:blue;stroke:blue;" cx="1102" cy="-10" rx="10" ry="10"/>
<text text-anchor="middle" x="1102" y="-5.65" style="font-family:Times New Roman;font-size:14.00;fill:white;">40</text>
</g>
<!-- l39&#45;&#45;l40 -->
<g id="edge74" class="edge"><title>l39&#45;&#45;l40</title>
<path style="fill:none;stroke:none;" d="M1084,-10C1086,-10 1089,-10 1092,-10"/>
</g>
<!-- l40&#45;&#45;u27 -->
<g id="edge162" class="edge"><title>l40&#45;&#45;u27</title>
<path style="fill:none;stroke:black;" d="M1097,-19C1055,-84 785,-507 743,-572"/>
</g>
<!-- l41 -->
<g id="node73" class="node"><title>l41</title>
<ellipse style="fill:blue;stroke:blue;" cx="1130" cy="-10" rx="10" ry="10"/>
<text text-anchor="middle" x="1130" y="-5.65" style="font-family:Times New Roman;font-size:14.00;fill:white;">41</text>
</g>
<!-- l40&#45;&#45;l41 -->
<g id="edge75" class="edge"><title>l40&#45;&#45;l41</title>
<path style="fill:none;stroke:none;" d="M1112,-10C1114,-10 1117,-10 1120,-10"/>
</g>
<!-- l41&#45;&#45;u28 -->
<g id="edge164" class="edge"><title>l41&#45;&#45;u28</title>
<path style="fill:none;stroke:black;" d="M1125,-19C1083,-84 813,-507 771,-572"/>
</g>
<!-- l42 -->
<g id="node74" class="node"><title>l42</title>
<ellipse style="fill:blue;stroke:blue;" cx="1158" cy="-10" rx="10" ry="10"/>
<text text-anchor="middle" x="1158" y="-5.65" style="font-family:Times New Roman;font-size:14.00;fill:white;">42</text>
</g>
<!-- l41&#45;&#45;l42 -->
<g id="edge76" class="edge"><title>l41&#45;&#45;l42</title>
<path style="fill:none;stroke:none;" d="M1140,-10C1142,-10 1145,-10 1148,-10"/>
</g>
<!-- l42&#45;&#45;u29 -->
<g id="edge166" class="edge"><title>l42&#45;&#45;u29</title>
<path style="fill:none;stroke:black;" d="M1153,-19C1111,-84 841,-507 799,-572"/>
</g>
<!-- l43 -->
<g id="node75" class="node"><title>l43</title>
<ellipse style="fill:blue;stroke:blue;" cx="1186" cy="-10" rx="10" ry="10"/>
<text text-anchor="middle" x="1186" y="-5.65" style="font-family:Times New Roman;font-size:14.00;fill:white;">43</text>
</g>
<!-- l42&#45;&#45;l43 -->
<g id="edge77" class="edge"><title>l42&#45;&#45;l43</title>
<path style="fill:none;stroke:none;" d="M1168,-10C1170,-10 1173,-10 1176,-10"/>
</g>
<!-- l43&#45;&#45;u28 -->
<g id="edge168" class="edge"><title>l43&#45;&#45;u28</title>
<path style="fill:none;stroke:black;" d="M1180,-18C1133,-83 819,-508 772,-572"/>
</g>
<!-- l44 -->
<g id="node76" class="node"><title>l44</title>
<ellipse style="fill:blue;stroke:blue;" cx="1214" cy="-10" rx="10" ry="10"/>
<text text-anchor="middle" x="1214" y="-5.65" style="font-family:Times New Roman;font-size:14.00;fill:white;">44</text>
</g>
<!-- l43&#45;&#45;l44 -->
<g id="edge78" class="edge"><title>l43&#45;&#45;l44</title>
<path style="fill:none;stroke:none;" d="M1196,-10C1198,-10 1201,-10 1204,-10"/>
</g>
<!-- l44&#45;&#45;u29 -->
<g id="edge170" class="edge"><title>l44&#45;&#45;u29</title>
<path style="fill:none;stroke:black;" d="M1208,-18C1161,-83 847,-508 800,-572"/>
</g>
<!-- l45 -->
<g id="node77" class="node"><title>l45</title>
<ellipse style="fill:blue;stroke:blue;" cx="1242" cy="-10" rx="10" ry="10"/>
<text text-anchor="middle" x="1242" y="-5.65" style="font-family:Times New Roman;font-size:14.00;fill:white;">45</text>
</g>
<!-- l44&#45;&#45;l45 -->
<g id="edge79" class="edge"><title>l44&#45;&#45;l45</title>
<path style="fill:none;stroke:none;" d="M1224,-10C1226,-10 1229,-10 1232,-10"/>
</g>
<!-- l45&#45;&#45;u30 -->
<g id="edge172" class="edge"><title>l45&#45;&#45;u30</title>
<path style="fill:none;stroke:black;" d="M1236,-18C1189,-83 875,-508 828,-572"/>
</g>
<!-- l46 -->
<g id="node78" class="node"><title>l46</title>
<ellipse style="fill:blue;stroke:blue;" cx="1270" cy="-10" rx="10" ry="10"/>
<text text-anchor="middle" x="1270" y="-5.65" style="font-family:Times New Roman;font-size:14.00;fill:white;">46</text>
</g>
<!-- l45&#45;&#45;l46 -->
<g id="edge80" class="edge"><title>l45&#45;&#45;l46</title>
<path style="fill:none;stroke:none;" d="M1252,-10C1254,-10 1257,-10 1260,-10"/>
</g>
<!-- l46&#45;&#45;u31 -->
<g id="edge174" class="edge"><title>l46&#45;&#45;u31</title>
<path style="fill:none;stroke:black;" d="M1264,-18C1217,-83 903,-508 856,-572"/>
</g>
<!-- l47 -->
<g id="node79" class="node"><title>l47</title>
<ellipse style="fill:blue;stroke:blue;" cx="1298" cy="-10" rx="10" ry="10"/>
<text text-anchor="middle" x="1298" y="-5.65" style="font-family:Times New Roman;font-size:14.00;fill:white;">47</text>
</g>
<!-- l46&#45;&#45;l47 -->
<g id="edge81" class="edge"><title>l46&#45;&#45;l47</title>
<path style="fill:none;stroke:none;" d="M1280,-10C1282,-10 1285,-10 1288,-10"/>
</g>
<!-- l47&#45;&#45;u32 -->
<g id="edge176" class="edge"><title>l47&#45;&#45;u32</title>
<path style="fill:none;stroke:black;" d="M1292,-18C1245,-83 931,-508 884,-572"/>
</g>
<!-- l48 -->
<g id="node80" class="node"><title>l48</title>
<ellipse style="fill:blue;stroke:blue;" cx="1326" cy="-10" rx="10" ry="10"/>
<text text-anchor="middle" x="1326" y="-5.65" style="font-family:Times New Roman;font-size:14.00;fill:white;">48</text>
</g>
<!-- l47&#45;&#45;l48 -->
<g id="edge82" class="edge"><title>l47&#45;&#45;l48</title>
<path style="fill:none;stroke:none;" d="M1308,-10C1310,-10 1313,-10 1316,-10"/>
</g>
<!-- l48&#45;&#45;u1 -->
<g id="edge178" class="edge"><title>l48&#45;&#45;u1</title>
<path style="fill:none;stroke:black;" d="M1317,-14C1206,-62 132,-528 19,-576"/>
</g>
</g>
</svg>
