<?xml version="1.0" encoding="UTF-8" standalone="no"?>
<!DOCTYPE svg PUBLIC "-//W3C//DTD SVG 1.0//EN"
 "http://www.w3.org/TR/2001/REC-SVG-20010904/DTD/svg10.dtd" [
 <!ATTLIST svg xmlns:xlink CDATA #FIXED "http://www.w3.org/1999/xlink">
]>
<!-- Generated by Graphviz version 2.16 (Wed Jan  9 23:52:32 UTC 2008)
     For user: (homer) homer,,, -->
<!-- Title: des Pages: 1 -->
<svg width="896pt" height="540pt"
 viewBox="0.00 0.00 896.00 540.00" xmlns="http://www.w3.org/2000/svg" xmlns:xlink="http://www.w3.org/1999/xlink">
<g id="graph0" class="graph" transform="scale(1 1) rotate(0) translate(4 536)">
<title>des</title>
<polygon style="fill:white;stroke:white;" points="-4,4 -4,-536 892,-536 892,4 -4,4"/>
<!-- u1 -->
<g id="node1" class="node"><title>u1</title>
<ellipse style="fill:blue;stroke:blue;" cx="10" cy="-504" rx="10" ry="10"/>
<text text-anchor="middle" x="10" y="-499.65" style="font-family:Times New Roman;font-size:14.00;fill:white;">1</text>
</g>
<!-- u1&#45;&#45;u1 -->
<g id="edge2" class="edge"><title>u1&#45;&#45;u1</title>
<path style="fill:none;stroke:none;" d="M6,-513C4,-522 5,-532 10,-532 15,-532 16,-522 14,-513"/>
</g>
<!-- u2 -->
<g id="node2" class="node"><title>u2</title>
<ellipse style="fill:blue;stroke:blue;" cx="38" cy="-504" rx="10" ry="10"/>
<text text-anchor="middle" x="38" y="-499.65" style="font-family:Times New Roman;font-size:14.00;fill:white;">2</text>
</g>
<!-- u1&#45;&#45;u2 -->
<g id="edge3" class="edge"><title>u1&#45;&#45;u2</title>
<path style="fill:none;stroke:none;" d="M20,-504C22,-504 25,-504 28,-504"/>
</g>
<!-- u3 -->
<g id="node3" class="node"><title>u3</title>
<ellipse style="fill:blue;stroke:blue;" cx="66" cy="-504" rx="10" ry="10"/>
<text text-anchor="middle" x="66" y="-499.65" style="font-family:Times New Roman;font-size:14.00;fill:white;">3</text>
</g>
<!-- u2&#45;&#45;u3 -->
<g id="edge4" class="edge"><title>u2&#45;&#45;u3</title>
<path style="fill:none;stroke:none;" d="M48,-504C50,-504 53,-504 56,-504"/>
</g>
<!-- u4 -->
<g id="node4" class="node"><title>u4</title>
<ellipse style="fill:blue;stroke:blue;" cx="94" cy="-504" rx="10" ry="10"/>
<text text-anchor="middle" x="94" y="-499.65" style="font-family:Times New Roman;font-size:14.00;fill:white;">4</text>
</g>
<!-- u3&#45;&#45;u4 -->
<g id="edge5" class="edge"><title>u3&#45;&#45;u4</title>
<path style="fill:none;stroke:none;" d="M76,-504C78,-504 81,-504 84,-504"/>
</g>
<!-- u5 -->
<g id="node5" class="node"><title>u5</title>
<ellipse style="fill:blue;stroke:blue;" cx="122" cy="-504" rx="10" ry="10"/>
<text text-anchor="middle" x="122" y="-499.65" style="font-family:Times New Roman;font-size:14.00;fill:white;">5</text>
</g>
<!-- u4&#45;&#45;u5 -->
<g id="edge6" class="edge"><title>u4&#45;&#45;u5</title>
<path style="fill:none;stroke:none;" d="M104,-504C106,-504 109,-504 112,-504"/>
</g>
<!-- u6 -->
<g id="node6" class="node"><title>u6</title>
<ellipse style="fill:blue;stroke:blue;" cx="150" cy="-504" rx="10" ry="10"/>
<text text-anchor="middle" x="150" y="-499.65" style="font-family:Times New Roman;font-size:14.00;fill:white;">6</text>
</g>
<!-- u5&#45;&#45;u6 -->
<g id="edge7" class="edge"><title>u5&#45;&#45;u6</title>
<path style="fill:none;stroke:none;" d="M132,-504C134,-504 137,-504 140,-504"/>
</g>
<!-- u7 -->
<g id="node7" class="node"><title>u7</title>
<ellipse style="fill:blue;stroke:blue;" cx="178" cy="-504" rx="10" ry="10"/>
<text text-anchor="middle" x="178" y="-499.65" style="font-family:Times New Roman;font-size:14.00;fill:white;">7</text>
</g>
<!-- u6&#45;&#45;u7 -->
<g id="edge8" class="edge"><title>u6&#45;&#45;u7</title>
<path style="fill:none;stroke:none;" d="M160,-504C162,-504 165,-504 168,-504"/>
</g>
<!-- u8 -->
<g id="node8" class="node"><title>u8</title>
<ellipse style="fill:blue;stroke:blue;" cx="206" cy="-504" rx="10" ry="10"/>
<text text-anchor="middle" x="206" y="-499.65" style="font-family:Times New Roman;font-size:14.00;fill:white;">8</text>
</g>
<!-- u7&#45;&#45;u8 -->
<g id="edge9" class="edge"><title>u7&#45;&#45;u8</title>
<path style="fill:none;stroke:none;" d="M188,-504C190,-504 193,-504 196,-504"/>
</g>
<!-- u9 -->
<g id="node9" class="node"><title>u9</title>
<ellipse style="fill:blue;stroke:blue;" cx="234" cy="-504" rx="10" ry="10"/>
<text text-anchor="middle" x="234" y="-499.65" style="font-family:Times New Roman;font-size:14.00;fill:white;">9</text>
</g>
<!-- u8&#45;&#45;u9 -->
<g id="edge10" class="edge"><title>u8&#45;&#45;u9</title>
<path style="fill:none;stroke:none;" d="M216,-504C218,-504 221,-504 224,-504"/>
</g>
<!-- u10 -->
<g id="node10" class="node"><title>u10</title>
<ellipse style="fill:blue;stroke:blue;" cx="262" cy="-504" rx="10" ry="10"/>
<text text-anchor="middle" x="262" y="-499.65" style="font-family:Times New Roman;font-size:14.00;fill:white;">10</text>
</g>
<!-- u9&#45;&#45;u10 -->
<g id="edge11" class="edge"><title>u9&#45;&#45;u10</title>
<path style="fill:none;stroke:none;" d="M244,-504C246,-504 249,-504 252,-504"/>
</g>
<!-- u11 -->
<g id="node11" class="node"><title>u11</title>
<ellipse style="fill:blue;stroke:blue;" cx="290" cy="-504" rx="10" ry="10"/>
<text text-anchor="middle" x="290" y="-499.65" style="font-family:Times New Roman;font-size:14.00;fill:white;">11</text>
</g>
<!-- u10&#45;&#45;u11 -->
<g id="edge12" class="edge"><title>u10&#45;&#45;u11</title>
<path style="fill:none;stroke:none;" d="M272,-504C274,-504 277,-504 280,-504"/>
</g>
<!-- u12 -->
<g id="node12" class="node"><title>u12</title>
<ellipse style="fill:blue;stroke:blue;" cx="318" cy="-504" rx="10" ry="10"/>
<text text-anchor="middle" x="318" y="-499.65" style="font-family:Times New Roman;font-size:14.00;fill:white;">12</text>
</g>
<!-- u11&#45;&#45;u12 -->
<g id="edge13" class="edge"><title>u11&#45;&#45;u12</title>
<path style="fill:none;stroke:none;" d="M300,-504C302,-504 305,-504 308,-504"/>
</g>
<!-- u13 -->
<g id="node13" class="node"><title>u13</title>
<ellipse style="fill:blue;stroke:blue;" cx="346" cy="-504" rx="10" ry="10"/>
<text text-anchor="middle" x="346" y="-499.65" style="font-family:Times New Roman;font-size:14.00;fill:white;">13</text>
</g>
<!-- u12&#45;&#45;u13 -->
<g id="edge14" class="edge"><title>u12&#45;&#45;u13</title>
<path style="fill:none;stroke:none;" d="M328,-504C330,-504 333,-504 336,-504"/>
</g>
<!-- u14 -->
<g id="node14" class="node"><title>u14</title>
<ellipse style="fill:blue;stroke:blue;" cx="374" cy="-504" rx="10" ry="10"/>
<text text-anchor="middle" x="374" y="-499.65" style="font-family:Times New Roman;font-size:14.00;fill:white;">14</text>
</g>
<!-- u13&#45;&#45;u14 -->
<g id="edge15" class="edge"><title>u13&#45;&#45;u14</title>
<path style="fill:none;stroke:none;" d="M356,-504C358,-504 361,-504 364,-504"/>
</g>
<!-- u15 -->
<g id="node15" class="node"><title>u15</title>
<ellipse style="fill:blue;stroke:blue;" cx="402" cy="-504" rx="10" ry="10"/>
<text text-anchor="middle" x="402" y="-499.65" style="font-family:Times New Roman;font-size:14.00;fill:white;">15</text>
</g>
<!-- u14&#45;&#45;u15 -->
<g id="edge16" class="edge"><title>u14&#45;&#45;u15</title>
<path style="fill:none;stroke:none;" d="M384,-504C386,-504 389,-504 392,-504"/>
</g>
<!-- u16 -->
<g id="node16" class="node"><title>u16</title>
<ellipse style="fill:blue;stroke:blue;" cx="430" cy="-504" rx="10" ry="10"/>
<text text-anchor="middle" x="430" y="-499.65" style="font-family:Times New Roman;font-size:14.00;fill:white;">16</text>
</g>
<!-- u15&#45;&#45;u16 -->
<g id="edge17" class="edge"><title>u15&#45;&#45;u16</title>
<path style="fill:none;stroke:none;" d="M412,-504C414,-504 417,-504 420,-504"/>
</g>
<!-- u17 -->
<g id="node17" class="node"><title>u17</title>
<ellipse style="fill:blue;stroke:blue;" cx="458" cy="-504" rx="10" ry="10"/>
<text text-anchor="middle" x="458" y="-499.65" style="font-family:Times New Roman;font-size:14.00;fill:white;">17</text>
</g>
<!-- u16&#45;&#45;u17 -->
<g id="edge18" class="edge"><title>u16&#45;&#45;u17</title>
<path style="fill:none;stroke:none;" d="M440,-504C442,-504 445,-504 448,-504"/>
</g>
<!-- u18 -->
<g id="node18" class="node"><title>u18</title>
<ellipse style="fill:blue;stroke:blue;" cx="486" cy="-504" rx="10" ry="10"/>
<text text-anchor="middle" x="486" y="-499.65" style="font-family:Times New Roman;font-size:14.00;fill:white;">18</text>
</g>
<!-- u17&#45;&#45;u18 -->
<g id="edge19" class="edge"><title>u17&#45;&#45;u18</title>
<path style="fill:none;stroke:none;" d="M468,-504C470,-504 473,-504 476,-504"/>
</g>
<!-- u19 -->
<g id="node19" class="node"><title>u19</title>
<ellipse style="fill:blue;stroke:blue;" cx="514" cy="-504" rx="10" ry="10"/>
<text text-anchor="middle" x="514" y="-499.65" style="font-family:Times New Roman;font-size:14.00;fill:white;">19</text>
</g>
<!-- u18&#45;&#45;u19 -->
<g id="edge20" class="edge"><title>u18&#45;&#45;u19</title>
<path style="fill:none;stroke:none;" d="M496,-504C498,-504 501,-504 504,-504"/>
</g>
<!-- u20 -->
<g id="node20" class="node"><title>u20</title>
<ellipse style="fill:blue;stroke:blue;" cx="542" cy="-504" rx="10" ry="10"/>
<text text-anchor="middle" x="542" y="-499.65" style="font-family:Times New Roman;font-size:14.00;fill:white;">20</text>
</g>
<!-- u19&#45;&#45;u20 -->
<g id="edge21" class="edge"><title>u19&#45;&#45;u20</title>
<path style="fill:none;stroke:none;" d="M524,-504C526,-504 529,-504 532,-504"/>
</g>
<!-- u21 -->
<g id="node21" class="node"><title>u21</title>
<ellipse style="fill:blue;stroke:blue;" cx="570" cy="-504" rx="10" ry="10"/>
<text text-anchor="middle" x="570" y="-499.65" style="font-family:Times New Roman;font-size:14.00;fill:white;">21</text>
</g>
<!-- u20&#45;&#45;u21 -->
<g id="edge22" class="edge"><title>u20&#45;&#45;u21</title>
<path style="fill:none;stroke:none;" d="M552,-504C554,-504 557,-504 560,-504"/>
</g>
<!-- u22 -->
<g id="node22" class="node"><title>u22</title>
<ellipse style="fill:blue;stroke:blue;" cx="598" cy="-504" rx="10" ry="10"/>
<text text-anchor="middle" x="598" y="-499.65" style="font-family:Times New Roman;font-size:14.00;fill:white;">22</text>
</g>
<!-- u21&#45;&#45;u22 -->
<g id="edge23" class="edge"><title>u21&#45;&#45;u22</title>
<path style="fill:none;stroke:none;" d="M580,-504C582,-504 585,-504 588,-504"/>
</g>
<!-- u23 -->
<g id="node23" class="node"><title>u23</title>
<ellipse style="fill:blue;stroke:blue;" cx="626" cy="-504" rx="10" ry="10"/>
<text text-anchor="middle" x="626" y="-499.65" style="font-family:Times New Roman;font-size:14.00;fill:white;">23</text>
</g>
<!-- u22&#45;&#45;u23 -->
<g id="edge24" class="edge"><title>u22&#45;&#45;u23</title>
<path style="fill:none;stroke:none;" d="M608,-504C610,-504 613,-504 616,-504"/>
</g>
<!-- u24 -->
<g id="node24" class="node"><title>u24</title>
<ellipse style="fill:blue;stroke:blue;" cx="654" cy="-504" rx="10" ry="10"/>
<text text-anchor="middle" x="654" y="-499.65" style="font-family:Times New Roman;font-size:14.00;fill:white;">24</text>
</g>
<!-- u23&#45;&#45;u24 -->
<g id="edge25" class="edge"><title>u23&#45;&#45;u24</title>
<path style="fill:none;stroke:none;" d="M636,-504C638,-504 641,-504 644,-504"/>
</g>
<!-- u25 -->
<g id="node25" class="node"><title>u25</title>
<ellipse style="fill:blue;stroke:blue;" cx="682" cy="-504" rx="10" ry="10"/>
<text text-anchor="middle" x="682" y="-499.65" style="font-family:Times New Roman;font-size:14.00;fill:white;">25</text>
</g>
<!-- u24&#45;&#45;u25 -->
<g id="edge26" class="edge"><title>u24&#45;&#45;u25</title>
<path style="fill:none;stroke:none;" d="M664,-504C666,-504 669,-504 672,-504"/>
</g>
<!-- u26 -->
<g id="node26" class="node"><title>u26</title>
<ellipse style="fill:blue;stroke:blue;" cx="710" cy="-504" rx="10" ry="10"/>
<text text-anchor="middle" x="710" y="-499.65" style="font-family:Times New Roman;font-size:14.00;fill:white;">26</text>
</g>
<!-- u25&#45;&#45;u26 -->
<g id="edge27" class="edge"><title>u25&#45;&#45;u26</title>
<path style="fill:none;stroke:none;" d="M692,-504C694,-504 697,-504 700,-504"/>
</g>
<!-- u27 -->
<g id="node27" class="node"><title>u27</title>
<ellipse style="fill:blue;stroke:blue;" cx="738" cy="-504" rx="10" ry="10"/>
<text text-anchor="middle" x="738" y="-499.65" style="font-family:Times New Roman;font-size:14.00;fill:white;">27</text>
</g>
<!-- u26&#45;&#45;u27 -->
<g id="edge28" class="edge"><title>u26&#45;&#45;u27</title>
<path style="fill:none;stroke:none;" d="M720,-504C722,-504 725,-504 728,-504"/>
</g>
<!-- u28 -->
<g id="node28" class="node"><title>u28</title>
<ellipse style="fill:blue;stroke:blue;" cx="766" cy="-504" rx="10" ry="10"/>
<text text-anchor="middle" x="766" y="-499.65" style="font-family:Times New Roman;font-size:14.00;fill:white;">28</text>
</g>
<!-- u27&#45;&#45;u28 -->
<g id="edge29" class="edge"><title>u27&#45;&#45;u28</title>
<path style="fill:none;stroke:none;" d="M748,-504C750,-504 753,-504 756,-504"/>
</g>
<!-- u29 -->
<g id="node29" class="node"><title>u29</title>
<ellipse style="fill:blue;stroke:blue;" cx="794" cy="-504" rx="10" ry="10"/>
<text text-anchor="middle" x="794" y="-499.65" style="font-family:Times New Roman;font-size:14.00;fill:white;">29</text>
</g>
<!-- u28&#45;&#45;u29 -->
<g id="edge30" class="edge"><title>u28&#45;&#45;u29</title>
<path style="fill:none;stroke:none;" d="M776,-504C778,-504 781,-504 784,-504"/>
</g>
<!-- u30 -->
<g id="node30" class="node"><title>u30</title>
<ellipse style="fill:blue;stroke:blue;" cx="822" cy="-504" rx="10" ry="10"/>
<text text-anchor="middle" x="822" y="-499.65" style="font-family:Times New Roman;font-size:14.00;fill:white;">30</text>
</g>
<!-- u29&#45;&#45;u30 -->
<g id="edge31" class="edge"><title>u29&#45;&#45;u30</title>
<path style="fill:none;stroke:none;" d="M804,-504C806,-504 809,-504 812,-504"/>
</g>
<!-- u31 -->
<g id="node31" class="node"><title>u31</title>
<ellipse style="fill:blue;stroke:blue;" cx="850" cy="-504" rx="10" ry="10"/>
<text text-anchor="middle" x="850" y="-499.65" style="font-family:Times New Roman;font-size:14.00;fill:white;">31</text>
</g>
<!-- u30&#45;&#45;u31 -->
<g id="edge32" class="edge"><title>u30&#45;&#45;u31</title>
<path style="fill:none;stroke:none;" d="M832,-504C834,-504 837,-504 840,-504"/>
</g>
<!-- u32 -->
<g id="node32" class="node"><title>u32</title>
<ellipse style="fill:blue;stroke:blue;" cx="878" cy="-504" rx="10" ry="10"/>
<text text-anchor="middle" x="878" y="-499.65" style="font-family:Times New Roman;font-size:14.00;fill:white;">32</text>
</g>
<!-- u31&#45;&#45;u32 -->
<g id="edge33" class="edge"><title>u31&#45;&#45;u32</title>
<path style="fill:none;stroke:none;" d="M860,-504C862,-504 865,-504 868,-504"/>
</g>
<!-- l1 -->
<g id="node33" class="node"><title>l1</title>
<ellipse style="fill:blue;stroke:blue;" cx="10" cy="-10" rx="10" ry="10"/>
<text text-anchor="middle" x="10" y="-5.65" style="font-family:Times New Roman;font-size:14.00;fill:white;">1</text>
</g>
<!-- l1&#45;&#45;u16 -->
<g id="edge68" class="edge"><title>l1&#45;&#45;u16</title>
<path style="fill:none;stroke:black;" d="M17,-18C66,-76 374,-439 423,-496"/>
</g>
<!-- l1&#45;&#45;l1 -->
<g id="edge35" class="edge"><title>l1&#45;&#45;l1</title>
<path style="fill:none;stroke:none;" d="M6,-19C4,-28 5,-38 10,-38 15,-38 16,-28 14,-19"/>
</g>
<!-- l2 -->
<g id="node34" class="node"><title>l2</title>
<ellipse style="fill:blue;stroke:blue;" cx="38" cy="-10" rx="10" ry="10"/>
<text text-anchor="middle" x="38" y="-5.65" style="font-family:Times New Roman;font-size:14.00;fill:white;">2</text>
</g>
<!-- l1&#45;&#45;l2 -->
<g id="edge36" class="edge"><title>l1&#45;&#45;l2</title>
<path style="fill:none;stroke:none;" d="M20,-10C22,-10 25,-10 28,-10"/>
</g>
<!-- l2&#45;&#45;u7 -->
<g id="edge70" class="edge"><title>l2&#45;&#45;u7</title>
<path style="fill:none;stroke:black;" d="M41,-20C59,-83 157,-431 175,-494"/>
</g>
<!-- l3 -->
<g id="node35" class="node"><title>l3</title>
<ellipse style="fill:blue;stroke:blue;" cx="66" cy="-10" rx="10" ry="10"/>
<text text-anchor="middle" x="66" y="-5.65" style="font-family:Times New Roman;font-size:14.00;fill:white;">3</text>
</g>
<!-- l2&#45;&#45;l3 -->
<g id="edge37" class="edge"><title>l2&#45;&#45;l3</title>
<path style="fill:none;stroke:none;" d="M48,-10C50,-10 53,-10 56,-10"/>
</g>
<!-- l3&#45;&#45;u20 -->
<g id="edge72" class="edge"><title>l3&#45;&#45;u20</title>
<path style="fill:none;stroke:black;" d="M73,-17C127,-74 480,-440 535,-497"/>
</g>
<!-- l4 -->
<g id="node36" class="node"><title>l4</title>
<ellipse style="fill:blue;stroke:blue;" cx="94" cy="-10" rx="10" ry="10"/>
<text text-anchor="middle" x="94" y="-5.65" style="font-family:Times New Roman;font-size:14.00;fill:white;">4</text>
</g>
<!-- l3&#45;&#45;l4 -->
<g id="edge38" class="edge"><title>l3&#45;&#45;l4</title>
<path style="fill:none;stroke:none;" d="M76,-10C78,-10 81,-10 84,-10"/>
</g>
<!-- l4&#45;&#45;u21 -->
<g id="edge74" class="edge"><title>l4&#45;&#45;u21</title>
<path style="fill:none;stroke:black;" d="M101,-17C155,-74 508,-440 563,-497"/>
</g>
<!-- l5 -->
<g id="node37" class="node"><title>l5</title>
<ellipse style="fill:blue;stroke:blue;" cx="122" cy="-10" rx="10" ry="10"/>
<text text-anchor="middle" x="122" y="-5.65" style="font-family:Times New Roman;font-size:14.00;fill:white;">5</text>
</g>
<!-- l4&#45;&#45;l5 -->
<g id="edge39" class="edge"><title>l4&#45;&#45;l5</title>
<path style="fill:none;stroke:none;" d="M104,-10C106,-10 109,-10 112,-10"/>
</g>
<!-- l5&#45;&#45;u29 -->
<g id="edge76" class="edge"><title>l5&#45;&#45;u29</title>
<path style="fill:none;stroke:black;" d="M130,-16C203,-69 714,-445 786,-498"/>
</g>
<!-- l6 -->
<g id="node38" class="node"><title>l6</title>
<ellipse style="fill:blue;stroke:blue;" cx="150" cy="-10" rx="10" ry="10"/>
<text text-anchor="middle" x="150" y="-5.65" style="font-family:Times New Roman;font-size:14.00;fill:white;">6</text>
</g>
<!-- l5&#45;&#45;l6 -->
<g id="edge40" class="edge"><title>l5&#45;&#45;l6</title>
<path style="fill:none;stroke:none;" d="M132,-10C134,-10 137,-10 140,-10"/>
</g>
<!-- l6&#45;&#45;u12 -->
<g id="edge78" class="edge"><title>l6&#45;&#45;u12</title>
<path style="fill:none;stroke:black;" d="M153,-20C175,-83 294,-432 315,-495"/>
</g>
<!-- l7 -->
<g id="node39" class="node"><title>l7</title>
<ellipse style="fill:blue;stroke:blue;" cx="178" cy="-10" rx="10" ry="10"/>
<text text-anchor="middle" x="178" y="-5.65" style="font-family:Times New Roman;font-size:14.00;fill:white;">7</text>
</g>
<!-- l6&#45;&#45;l7 -->
<g id="edge41" class="edge"><title>l6&#45;&#45;l7</title>
<path style="fill:none;stroke:none;" d="M160,-10C162,-10 165,-10 168,-10"/>
</g>
<!-- l7&#45;&#45;u28 -->
<g id="edge80" class="edge"><title>l7&#45;&#45;u28</title>
<path style="fill:none;stroke:black;" d="M186,-17C251,-71 693,-442 758,-497"/>
</g>
<!-- l8 -->
<g id="node40" class="node"><title>l8</title>
<ellipse style="fill:blue;stroke:blue;" cx="206" cy="-10" rx="10" ry="10"/>
<text text-anchor="middle" x="206" y="-5.65" style="font-family:Times New Roman;font-size:14.00;fill:white;">8</text>
</g>
<!-- l7&#45;&#45;l8 -->
<g id="edge42" class="edge"><title>l7&#45;&#45;l8</title>
<path style="fill:none;stroke:none;" d="M188,-10C190,-10 193,-10 196,-10"/>
</g>
<!-- l8&#45;&#45;u17 -->
<g id="edge82" class="edge"><title>l8&#45;&#45;u17</title>
<path style="fill:none;stroke:black;" d="M211,-19C242,-80 422,-433 453,-495"/>
</g>
<!-- l9 -->
<g id="node41" class="node"><title>l9</title>
<ellipse style="fill:blue;stroke:blue;" cx="234" cy="-10" rx="10" ry="10"/>
<text text-anchor="middle" x="234" y="-5.65" style="font-family:Times New Roman;font-size:14.00;fill:white;">9</text>
</g>
<!-- l8&#45;&#45;l9 -->
<g id="edge43" class="edge"><title>l8&#45;&#45;l9</title>
<path style="fill:none;stroke:none;" d="M216,-10C218,-10 221,-10 224,-10"/>
</g>
<!-- l9&#45;&#45;u1 -->
<g id="edge84" class="edge"><title>l9&#45;&#45;u1</title>
<path style="fill:none;stroke:black;" d="M230,-19C202,-80 42,-432 14,-495"/>
</g>
<!-- l10 -->
<g id="node42" class="node"><title>l10</title>
<ellipse style="fill:blue;stroke:blue;" cx="262" cy="-10" rx="10" ry="10"/>
<text text-anchor="middle" x="262" y="-5.65" style="font-family:Times New Roman;font-size:14.00;fill:white;">10</text>
</g>
<!-- l9&#45;&#45;l10 -->
<g id="edge44" class="edge"><title>l9&#45;&#45;l10</title>
<path style="fill:none;stroke:none;" d="M244,-10C246,-10 249,-10 252,-10"/>
</g>
<!-- l10&#45;&#45;u15 -->
<g id="edge86" class="edge"><title>l10&#45;&#45;u15</title>
<path style="fill:none;stroke:black;" d="M265,-20C283,-83 381,-431 399,-494"/>
</g>
<!-- l11 -->
<g id="node43" class="node"><title>l11</title>
<ellipse style="fill:blue;stroke:blue;" cx="290" cy="-10" rx="10" ry="10"/>
<text text-anchor="middle" x="290" y="-5.65" style="font-family:Times New Roman;font-size:14.00;fill:white;">11</text>
</g>
<!-- l10&#45;&#45;l11 -->
<g id="edge45" class="edge"><title>l10&#45;&#45;l11</title>
<path style="fill:none;stroke:none;" d="M272,-10C274,-10 277,-10 280,-10"/>
</g>
<!-- l11&#45;&#45;u23 -->
<g id="edge88" class="edge"><title>l11&#45;&#45;u23</title>
<path style="fill:none;stroke:black;" d="M296,-19C336,-79 580,-436 620,-496"/>
</g>
<!-- l12 -->
<g id="node44" class="node"><title>l12</title>
<ellipse style="fill:blue;stroke:blue;" cx="318" cy="-10" rx="10" ry="10"/>
<text text-anchor="middle" x="318" y="-5.65" style="font-family:Times New Roman;font-size:14.00;fill:white;">12</text>
</g>
<!-- l11&#45;&#45;l12 -->
<g id="edge46" class="edge"><title>l11&#45;&#45;l12</title>
<path style="fill:none;stroke:none;" d="M300,-10C302,-10 305,-10 308,-10"/>
</g>
<!-- l12&#45;&#45;u26 -->
<g id="edge90" class="edge"><title>l12&#45;&#45;u26</title>
<path style="fill:none;stroke:black;" d="M324,-18C371,-77 657,-437 704,-496"/>
</g>
<!-- l13 -->
<g id="node45" class="node"><title>l13</title>
<ellipse style="fill:blue;stroke:blue;" cx="346" cy="-10" rx="10" ry="10"/>
<text text-anchor="middle" x="346" y="-5.65" style="font-family:Times New Roman;font-size:14.00;fill:white;">13</text>
</g>
<!-- l12&#45;&#45;l13 -->
<g id="edge47" class="edge"><title>l12&#45;&#45;l13</title>
<path style="fill:none;stroke:none;" d="M328,-10C330,-10 333,-10 336,-10"/>
</g>
<!-- l13&#45;&#45;u5 -->
<g id="edge92" class="edge"><title>l13&#45;&#45;u5</title>
<path style="fill:none;stroke:black;" d="M342,-19C314,-80 154,-432 126,-495"/>
</g>
<!-- l14 -->
<g id="node46" class="node"><title>l14</title>
<ellipse style="fill:blue;stroke:blue;" cx="374" cy="-10" rx="10" ry="10"/>
<text text-anchor="middle" x="374" y="-5.65" style="font-family:Times New Roman;font-size:14.00;fill:white;">14</text>
</g>
<!-- l13&#45;&#45;l14 -->
<g id="edge48" class="edge"><title>l13&#45;&#45;l14</title>
<path style="fill:none;stroke:none;" d="M356,-10C358,-10 361,-10 364,-10"/>
</g>
<!-- l14&#45;&#45;u18 -->
<g id="edge94" class="edge"><title>l14&#45;&#45;u18</title>
<path style="fill:none;stroke:black;" d="M376,-20C391,-83 469,-431 484,-494"/>
</g>
<!-- l15 -->
<g id="node47" class="node"><title>l15</title>
<ellipse style="fill:blue;stroke:blue;" cx="402" cy="-10" rx="10" ry="10"/>
<text text-anchor="middle" x="402" y="-5.65" style="font-family:Times New Roman;font-size:14.00;fill:white;">15</text>
</g>
<!-- l14&#45;&#45;l15 -->
<g id="edge49" class="edge"><title>l14&#45;&#45;l15</title>
<path style="fill:none;stroke:none;" d="M384,-10C386,-10 389,-10 392,-10"/>
</g>
<!-- l15&#45;&#45;u31 -->
<g id="edge96" class="edge"><title>l15&#45;&#45;u31</title>
<path style="fill:none;stroke:black;" d="M409,-18C461,-76 791,-439 843,-496"/>
</g>
<!-- l16 -->
<g id="node48" class="node"><title>l16</title>
<ellipse style="fill:blue;stroke:blue;" cx="430" cy="-10" rx="10" ry="10"/>
<text text-anchor="middle" x="430" y="-5.65" style="font-family:Times New Roman;font-size:14.00;fill:white;">16</text>
</g>
<!-- l15&#45;&#45;l16 -->
<g id="edge50" class="edge"><title>l15&#45;&#45;l16</title>
<path style="fill:none;stroke:none;" d="M412,-10C414,-10 417,-10 420,-10"/>
</g>
<!-- l16&#45;&#45;u10 -->
<g id="edge98" class="edge"><title>l16&#45;&#45;u10</title>
<path style="fill:none;stroke:black;" d="M427,-19C406,-82 287,-431 265,-494"/>
</g>
<!-- l17 -->
<g id="node49" class="node"><title>l17</title>
<ellipse style="fill:blue;stroke:blue;" cx="458" cy="-10" rx="10" ry="10"/>
<text text-anchor="middle" x="458" y="-5.65" style="font-family:Times New Roman;font-size:14.00;fill:white;">17</text>
</g>
<!-- l16&#45;&#45;l17 -->
<g id="edge51" class="edge"><title>l16&#45;&#45;l17</title>
<path style="fill:none;stroke:none;" d="M440,-10C442,-10 445,-10 448,-10"/>
</g>
<!-- l17&#45;&#45;u2 -->
<g id="edge100" class="edge"><title>l17&#45;&#45;u2</title>
<path style="fill:none;stroke:black;" d="M451,-18C402,-75 94,-438 45,-496"/>
</g>
<!-- l18 -->
<g id="node50" class="node"><title>l18</title>
<ellipse style="fill:blue;stroke:blue;" cx="486" cy="-10" rx="10" ry="10"/>
<text text-anchor="middle" x="486" y="-5.65" style="font-family:Times New Roman;font-size:14.00;fill:white;">18</text>
</g>
<!-- l17&#45;&#45;l18 -->
<g id="edge52" class="edge"><title>l17&#45;&#45;l18</title>
<path style="fill:none;stroke:none;" d="M468,-10C470,-10 473,-10 476,-10"/>
</g>
<!-- l18&#45;&#45;u8 -->
<g id="edge102" class="edge"><title>l18&#45;&#45;u8</title>
<path style="fill:none;stroke:black;" d="M481,-19C447,-79 246,-434 211,-495"/>
</g>
<!-- l19 -->
<g id="node51" class="node"><title>l19</title>
<ellipse style="fill:blue;stroke:blue;" cx="514" cy="-10" rx="10" ry="10"/>
<text text-anchor="middle" x="514" y="-5.65" style="font-family:Times New Roman;font-size:14.00;fill:white;">19</text>
</g>
<!-- l18&#45;&#45;l19 -->
<g id="edge53" class="edge"><title>l18&#45;&#45;l19</title>
<path style="fill:none;stroke:none;" d="M496,-10C498,-10 501,-10 504,-10"/>
</g>
<!-- l19&#45;&#45;u24 -->
<g id="edge104" class="edge"><title>l19&#45;&#45;u24</title>
<path style="fill:none;stroke:black;" d="M517,-20C535,-83 633,-431 651,-494"/>
</g>
<!-- l20 -->
<g id="node52" class="node"><title>l20</title>
<ellipse style="fill:blue;stroke:blue;" cx="542" cy="-10" rx="10" ry="10"/>
<text text-anchor="middle" x="542" y="-5.65" style="font-family:Times New Roman;font-size:14.00;fill:white;">20</text>
</g>
<!-- l19&#45;&#45;l20 -->
<g id="edge54" class="edge"><title>l19&#45;&#45;l20</title>
<path style="fill:none;stroke:none;" d="M524,-10C526,-10 529,-10 532,-10"/>
</g>
<!-- l20&#45;&#45;u14 -->
<g id="edge106" class="edge"><title>l20&#45;&#45;u14</title>
<path style="fill:none;stroke:black;" d="M539,-19C518,-82 399,-431 377,-494"/>
</g>
<!-- l21 -->
<g id="node53" class="node"><title>l21</title>
<ellipse style="fill:blue;stroke:blue;" cx="570" cy="-10" rx="10" ry="10"/>
<text text-anchor="middle" x="570" y="-5.65" style="font-family:Times New Roman;font-size:14.00;fill:white;">21</text>
</g>
<!-- l20&#45;&#45;l21 -->
<g id="edge55" class="edge"><title>l20&#45;&#45;l21</title>
<path style="fill:none;stroke:none;" d="M552,-10C554,-10 557,-10 560,-10"/>
</g>
<!-- l21&#45;&#45;u32 -->
<g id="edge108" class="edge"><title>l21&#45;&#45;u32</title>
<path style="fill:none;stroke:black;" d="M575,-19C612,-78 835,-434 873,-495"/>
</g>
<!-- l22 -->
<g id="node54" class="node"><title>l22</title>
<ellipse style="fill:blue;stroke:blue;" cx="598" cy="-10" rx="10" ry="10"/>
<text text-anchor="middle" x="598" y="-5.65" style="font-family:Times New Roman;font-size:14.00;fill:white;">22</text>
</g>
<!-- l21&#45;&#45;l22 -->
<g id="edge56" class="edge"><title>l21&#45;&#45;l22</title>
<path style="fill:none;stroke:none;" d="M580,-10C582,-10 585,-10 588,-10"/>
</g>
<!-- l22&#45;&#45;u27 -->
<g id="edge110" class="edge"><title>l22&#45;&#45;u27</title>
<path style="fill:none;stroke:black;" d="M601,-20C619,-83 717,-431 735,-494"/>
</g>
<!-- l23 -->
<g id="node55" class="node"><title>l23</title>
<ellipse style="fill:blue;stroke:blue;" cx="626" cy="-10" rx="10" ry="10"/>
<text text-anchor="middle" x="626" y="-5.65" style="font-family:Times New Roman;font-size:14.00;fill:white;">23</text>
</g>
<!-- l22&#45;&#45;l23 -->
<g id="edge57" class="edge"><title>l22&#45;&#45;l23</title>
<path style="fill:none;stroke:none;" d="M608,-10C610,-10 613,-10 616,-10"/>
</g>
<!-- l23&#45;&#45;u3 -->
<g id="edge112" class="edge"><title>l23&#45;&#45;u3</title>
<path style="fill:none;stroke:black;" d="M618,-17C556,-71 137,-441 74,-497"/>
</g>
<!-- l24 -->
<g id="node56" class="node"><title>l24</title>
<ellipse style="fill:blue;stroke:blue;" cx="654" cy="-10" rx="10" ry="10"/>
<text text-anchor="middle" x="654" y="-5.65" style="font-family:Times New Roman;font-size:14.00;fill:white;">24</text>
</g>
<!-- l23&#45;&#45;l24 -->
<g id="edge58" class="edge"><title>l23&#45;&#45;l24</title>
<path style="fill:none;stroke:none;" d="M636,-10C638,-10 641,-10 644,-10"/>
</g>
<!-- l24&#45;&#45;u9 -->
<g id="edge114" class="edge"><title>l24&#45;&#45;u9</title>
<path style="fill:none;stroke:black;" d="M647,-18C598,-75 290,-438 241,-496"/>
</g>
<!-- l25 -->
<g id="node57" class="node"><title>l25</title>
<ellipse style="fill:blue;stroke:blue;" cx="682" cy="-10" rx="10" ry="10"/>
<text text-anchor="middle" x="682" y="-5.65" style="font-family:Times New Roman;font-size:14.00;fill:white;">25</text>
</g>
<!-- l24&#45;&#45;l25 -->
<g id="edge59" class="edge"><title>l24&#45;&#45;l25</title>
<path style="fill:none;stroke:none;" d="M664,-10C666,-10 669,-10 672,-10"/>
</g>
<!-- l25&#45;&#45;u19 -->
<g id="edge116" class="edge"><title>l25&#45;&#45;u19</title>
<path style="fill:none;stroke:black;" d="M679,-19C658,-82 539,-431 517,-494"/>
</g>
<!-- l26 -->
<g id="node58" class="node"><title>l26</title>
<ellipse style="fill:blue;stroke:blue;" cx="710" cy="-10" rx="10" ry="10"/>
<text text-anchor="middle" x="710" y="-5.65" style="font-family:Times New Roman;font-size:14.00;fill:white;">26</text>
</g>
<!-- l25&#45;&#45;l26 -->
<g id="edge60" class="edge"><title>l25&#45;&#45;l26</title>
<path style="fill:none;stroke:none;" d="M692,-10C694,-10 697,-10 700,-10"/>
</g>
<!-- l26&#45;&#45;u13 -->
<g id="edge118" class="edge"><title>l26&#45;&#45;u13</title>
<path style="fill:none;stroke:black;" d="M704,-18C661,-77 395,-437 352,-496"/>
</g>
<!-- l27 -->
<g id="node59" class="node"><title>l27</title>
<ellipse style="fill:blue;stroke:blue;" cx="738" cy="-10" rx="10" ry="10"/>
<text text-anchor="middle" x="738" y="-5.65" style="font-family:Times New Roman;font-size:14.00;fill:white;">27</text>
</g>
<!-- l26&#45;&#45;l27 -->
<g id="edge61" class="edge"><title>l26&#45;&#45;l27</title>
<path style="fill:none;stroke:none;" d="M720,-10C722,-10 725,-10 728,-10"/>
</g>
<!-- l27&#45;&#45;u30 -->
<g id="edge120" class="edge"><title>l27&#45;&#45;u30</title>
<path style="fill:none;stroke:black;" d="M740,-20C751,-83 810,-431 820,-494"/>
</g>
<!-- l28 -->
<g id="node60" class="node"><title>l28</title>
<ellipse style="fill:blue;stroke:blue;" cx="766" cy="-10" rx="10" ry="10"/>
<text text-anchor="middle" x="766" y="-5.65" style="font-family:Times New Roman;font-size:14.00;fill:white;">28</text>
</g>
<!-- l27&#45;&#45;l28 -->
<g id="edge62" class="edge"><title>l27&#45;&#45;l28</title>
<path style="fill:none;stroke:none;" d="M748,-10C750,-10 753,-10 756,-10"/>
</g>
<!-- l28&#45;&#45;u6 -->
<g id="edge122" class="edge"><title>l28&#45;&#45;u6</title>
<path style="fill:none;stroke:black;" d="M758,-16C691,-70 226,-443 158,-497"/>
</g>
<!-- l29 -->
<g id="node61" class="node"><title>l29</title>
<ellipse style="fill:blue;stroke:blue;" cx="794" cy="-10" rx="10" ry="10"/>
<text text-anchor="middle" x="794" y="-5.65" style="font-family:Times New Roman;font-size:14.00;fill:white;">29</text>
</g>
<!-- l28&#45;&#45;l29 -->
<g id="edge63" class="edge"><title>l28&#45;&#45;l29</title>
<path style="fill:none;stroke:none;" d="M776,-10C778,-10 781,-10 784,-10"/>
</g>
<!-- l29&#45;&#45;u22 -->
<g id="edge124" class="edge"><title>l29&#45;&#45;u22</title>
<path style="fill:none;stroke:black;" d="M790,-20C765,-82 627,-432 602,-495"/>
</g>
<!-- l30 -->
<g id="node62" class="node"><title>l30</title>
<ellipse style="fill:blue;stroke:blue;" cx="822" cy="-10" rx="10" ry="10"/>
<text text-anchor="middle" x="822" y="-5.65" style="font-family:Times New Roman;font-size:14.00;fill:white;">30</text>
</g>
<!-- l29&#45;&#45;l30 -->
<g id="edge64" class="edge"><title>l29&#45;&#45;l30</title>
<path style="fill:none;stroke:none;" d="M804,-10C806,-10 809,-10 812,-10"/>
</g>
<!-- l30&#45;&#45;u11 -->
<g id="edge126" class="edge"><title>l30&#45;&#45;u11</title>
<path style="fill:none;stroke:black;" d="M814,-17C754,-73 357,-442 298,-497"/>
</g>
<!-- l31 -->
<g id="node63" class="node"><title>l31</title>
<ellipse style="fill:blue;stroke:blue;" cx="850" cy="-10" rx="10" ry="10"/>
<text text-anchor="middle" x="850" y="-5.65" style="font-family:Times New Roman;font-size:14.00;fill:white;">31</text>
</g>
<!-- l30&#45;&#45;l31 -->
<g id="edge65" class="edge"><title>l30&#45;&#45;l31</title>
<path style="fill:none;stroke:none;" d="M832,-10C834,-10 837,-10 840,-10"/>
</g>
<!-- l31&#45;&#45;u4 -->
<g id="edge128" class="edge"><title>l31&#45;&#45;u4</title>
<path style="fill:none;stroke:black;" d="M842,-16C764,-66 180,-448 102,-498"/>
</g>
<!-- l32 -->
<g id="node64" class="node"><title>l32</title>
<ellipse style="fill:blue;stroke:blue;" cx="878" cy="-10" rx="10" ry="10"/>
<text text-anchor="middle" x="878" y="-5.65" style="font-family:Times New Roman;font-size:14.00;fill:white;">32</text>
</g>
<!-- l31&#45;&#45;l32 -->
<g id="edge66" class="edge"><title>l31&#45;&#45;l32</title>
<path style="fill:none;stroke:none;" d="M860,-10C862,-10 865,-10 868,-10"/>
</g>
<!-- l32&#45;&#45;u25 -->
<g id="edge130" class="edge"><title>l32&#45;&#45;u25</title>
<path style="fill:none;stroke:black;" d="M874,-20C849,-82 711,-432 686,-495"/>
</g>
</g>
</svg>
